Patient4_TMGait_0pt4_02_right_41_EMG.mot
version=1
nRows=23
nColumns=33
inDegrees=no
endheader
time	1LAddLong	2LGlutMax	3LGlutMed	4LIliopsoas	5LSemiMemb	6LBicFemLong	7LRecFem	8LVastMed	9LVastLat	10LGasMed	11LTibAnt	12lTibPost	13LPeroneusLong	14LSol	15LExtDigLong	16LFlexDigLong	17RAddLong	18RGlutMax	19RGlutMed	20RIliopsoas	21RSemiMemb	22RBicFemLong	23RRecFem	24RVastMed	25RVastLat	26RGasMed	27RTibAnt	28RTibPost	29RPeroneusLong	30RSol	31RExtDigLong	32RFlexDigLong
54.515	-0.009766	-0.3154	0.023193	-0.005493	0.013885	-0.03891	0.10498	0.005341	0.032349	-0.024567	-0.009766	0.002441	-0.096741	-0.10773	-0.040588	-0.010986	-0.045471	-1.8192	-0.66483	0.14114	-0.13962	0.26489	0.103	0.021667	-0.81238	-0.002899	-0.090485	0.031586	1.2819	-0.19302	-0.004883	-0.02121
54.516	-0.014038	-0.29007	-0.000916	-0.009766	0.007019	-0.039673	0.10544	0.006104	0.042572	-0.032043	0.006256	-0.001831	-0.10819	-0.091248	-0.028687	-0.010071	-0.051422	-1.6693	-0.33981	0.005646	0.054779	0.31082	0.20783	0.16632	-0.46097	0.00061	-0.17578	0.11932	-0.2945	-0.16251	-0.00473	-0.014343
54.517	-0.004425	-0.32608	-0.014343	-0.008698	0.006866	-0.019836	0.085907	0.008698	0.051422	-0.027771	-0.051727	0.004883	-0.093231	-0.091553	0.034332	-0.015411	-0.039978	-1.5411	-0.25833	-0.035858	-0.039063	0.23575	0.25436	0.22049	-0.20187	0.005646	-0.052795	0.019226	-0.38284	-0.099487	-0.00412	-0.015106
54.518	-0.00061	-0.32333	-0.042267	0.000305	0.001068	-0.037384	0.11124	0.007782	0.04303	-0.030975	-0.004272	0.003357	-0.092163	-0.050049	0.04364	-0.015259	-0.041046	-1.4436	-0.37155	0.026093	-0.010071	0.21332	0.26932	0.19821	-0.088806	0.013885	-0.18051	0.040588	-0.97244	-0.2829	-0.003815	-0.016022
54.519	0.003967	-0.32425	-0.045319	0.003662	-0.00946	-0.025787	0.15289	0.013733	0.039673	-0.029755	0.001373	-0.001068	-0.092621	-0.024109	0.024719	-0.001678	-0.020447	-1.3332	-0.20157	0.076141	0.20355	0.18204	0.28107	0.17578	-0.07309	0.002136	-0.1442	0.016327	-0.70328	-0.16083	-0.001831	-0.024567
54.52	-0.003815	-0.31479	-0.037384	-0.001221	0.001831	-0.030823	0.19455	0.001984	0.014191	-0.020142	-0.004425	0.003967	-0.10132	-0.037079	0.010681	-0.009766	-0.031891	-1.2611	0.067596	0.08728	0.084991	0.060425	0.35492	0.10254	-0.10544	0.004578	-0.22232	0.01236	0.99075	-0.13916	-0.000458	-0.019226
54.521	0.000305	-0.28275	-0.029907	-0.001984	-0.007629	-0.024719	0.2214	0.007782	0.014191	-0.033875	0.004425	0.000153	-0.10559	-0.023651	0.013733	-0.014954	-0.040741	-1.1928	-0.46356	0.018311	0.019531	-0.17975	0.18326	0.15945	-0.055389	0.009613	-0.33203	0.002289	0.47333	-0.10422	-0.008392	-0.02121
54.522	0.011292	-0.25421	-0.037689	0.016022	0.000305	0.002594	0.2182	0.011749	-0.006714	-0.0177	0.004425	0.000153	-0.092163	-0.037537	0.010986	-0.018616	-0.04837	-1.1333	-0.61966	-0.22156	0.17792	-0.67322	-0.037079	0.28076	-0.001526	0.007935	-0.3009	0	-0.098419	0.014648	-0.004883	-0.021362
54.523	0.006409	-0.22339	-0.072784	-0.010681	0.011597	0.02121	0.22049	-0.007782	-0.000305	-0.022888	-0.000916	0.002136	-0.060577	-0.018311	-0.029297	-0.010529	-0.052185	-1.0364	-0.20142	-0.32623	0.15427	-0.8815	-0.077362	0.42969	-0.016479	0.005035	-0.3421	-0.00061	0.64102	0.07782	-0.002594	-0.023193
54.524	0.011139	-0.19348	-0.00885	-0.031281	-0.000305	0.020142	0.21973	0.004425	-0.01709	-0.006866	-0.021973	-0.00061	-0.072784	-0.026703	0.00061	-0.009308	-0.031586	-0.95657	-0.1358	-0.23117	0.009766	-0.6488	0.11505	0.32379	-0.034485	-0.005341	-0.21713	-0.003815	0.83298	0.11871	-0.002289	-0.03479
54.525	0.013275	-0.20844	0.014191	-0.00061	-0.000305	0.023346	0.23377	0.012665	-0.040741	0.001221	0.045166	-0.002899	-0.098114	-0.027008	-0.012512	-0.000916	-0.009003	-0.96649	-0.14221	-0.20493	-0.040894	-0.36331	0.14832	0.22125	-0.068054	0.002441	0.009918	0.001984	-0.27069	-0.015106	-0.002594	-0.027924
54.526	0.012054	-0.19348	-0.023804	-0.000458	0.003357	0.007629	0.25436	0.008087	-0.055542	0.002441	0.1207	0.004883	-0.11169	0.003052	-0.030365	-0.014496	-0.016022	-0.93964	-0.49881	-0.029755	-0.019073	-0.17151	0.1445	0.17075	-0.024872	-0.007172	0.018616	-0.002594	0.083771	0.065918	-0.003052	-0.032196
54.527	0.005341	-0.18478	-0.058746	0.019531	0.009613	-0.06546	0.29053	0.014191	-0.04425	-0.005341	0.07431	0.00824	-0.074005	0.00351	-0.067596	-0.005341	-0.009766	-0.91705	-0.46265	0.15381	0.00351	-0.1152	0.092773	0.089722	-0.016785	-0.022125	0.09201	0.00473	0.96558	0.008545	0	-0.029907
54.528	0.004578	-0.15503	-0.076294	0.039978	0.010529	-0.061646	0.27802	0.013123	-0.039978	-0.015259	-0.23163	-0.000458	-0.052032	0.003967	-0.045471	-0.002441	-0.002289	-0.93765	-0.54367	0.29953	-0.001984	-0.047913	-0.009308	-0.077362	-0.01236	-0.014038	0.050964	0.002441	0.50949	-0.096741	-0.001831	-0.024414
54.529	-0.00061	-0.10376	-0.03952	0.037537	0.000305	-0.041809	0.28107	0.00946	-0.031433	-0.010529	-0.021515	0.005341	-0.060425	0.010376	0.070496	-0.00946	0.007324	-1.0213	-0.66391	0.38086	-0.03418	0.003357	-0.046997	-0.13199	-0.022736	-0.020752	0.10239	0.00351	-1.1552	-0.096741	-0.002747	-0.023651
54.53	0.003204	-0.06546	-0.077362	0.000153	0.006256	-0.025024	0.29297	0.013123	-0.038757	-0.031128	-0.075836	0.00061	-0.060883	0.014954	0.26276	-0.00412	0.010834	-1.069	-0.50369	0.21378	-0.074158	-0.072632	0.059509	-0.041351	0.014038	-0.018311	0.18417	0.004272	-1.2817	-0.1474	-0.005798	-0.017242
54.531	-0.001984	-0.046082	-0.059967	-0.018921	0.011292	-0.014954	0.30945	0.002136	-0.041351	-0.034637	-0.062561	0.005798	-0.062408	0.012665	0.32989	0.009918	0.023193	-1.0419	0.17273	-0.070801	-0.057983	-0.14862	0.11032	-0.073853	0.002136	-0.009308	0.28519	0.004883	1.423	-0.032959	-0.002899	-0.021667
54.532	-0.002441	-0.017395	-0.073547	-0.025024	0.009155	-0.021667	0.2417	0.01236	-0.041809	-0.028839	0.061035	0	-0.040131	0.009766	0.10315	-0.008545	0.016479	-1.0402	-0.47775	-0.16266	0.023956	-0.19089	0.10132	-0.10284	-0.018005	-0.005493	0.23575	0.000153	1.4265	0.021362	-0.003815	-0.031433
54.533	0.002289	-0.000153	-0.049744	-0.027771	0.01236	-0.006714	0.25986	0.012207	-0.029144	-0.023499	0.11826	0.001221	-0.083923	-0.026245	-0.20615	-0.01236	0.013123	-0.94467	-0.83695	-0.16312	0.11643	-0.24719	-0.016174	-0.012207	-0.02121	-0.045929	-0.074158	0.003967	0.2388	-0.04364	-0.005951	-0.015106
54.534	0.005798	0.029755	-0.038757	-0.00061	0.016022	-0.027313	0.36591	0.010681	-0.032196	0.008087	0.042572	-0.002289	-0.07843	0.024719	-0.33539	-0.022888	0.013123	-0.82336	-0.93475	-0.097351	-0.012054	-0.22247	-0.082703	0.006561	-0.049438	-0.05722	-0.036163	0.005493	0.31799	0.008545	-0.006409	-0.011292
54.535	0.006256	0.088654	-0.056763	-0.013428	0.018005	-0.023346	0.43808	0.010071	-0.004272	-0.003357	-0.03891	0.001678	-0.056	0.00412	-0.26138	-0.009003	0.022736	-0.68573	0.47363	0.02594	-0.12329	-0.14465	-0.063934	-0.026398	-0.03952	0.018921	-0.007935	0.004883	0.737	-0.076904	0.000458	-0.018005
54.536	0.004425	0.08667	-0.055695	-0.014954	0.01709	-0.038147	0.53375	0.00351	-0.007782	0.005035	-0.068359	0.005341	-0.044556	0.00824	-0.07019	-0.014038	0.024414	-0.70755	-0.036621	0.085297	-0.16892	-0.089722	0.003815	-0.16815	-0.055542	0.034943	0.059814	-0.006256	-0.68192	-0.083313	-0.004578	-0.020447
54.537	-0.001373	0.121	-0.054932	-0.009308	0.012817	-0.043335	0.48599	0.012817	-0.00351	0.016022	-0.050964	-0.000916	-0.064697	0.019836	0.076904	-0.011139	0.006866	-0.67215	-0.34973	0.16983	0.012817	-0.067139	-0.018311	-0.112	-0.053558	0.026245	-0.1294	0.000458	1.3222	-0.079803	-0.001526	-0.019836
